<svg xmlns="http://www.w3.org/2000/svg" viewBox="0 0 50 50">
  <path d="M21 2C19.354545 2 18 3.3545455 18 5L18 7L8 7C7.447 7 7 7.448 7 8C7 8.552 7.447 9 8 9L9 9L9 45C9 46.654 10.346 48 12 48L34.037109 48C35.706109 49.249 37.767 50 40 50C45.5 50 50 45.5 50 40C50 34.837 46.035 30.556781 41 30.050781L41 9L42 9C42.553 9 43 8.552 43 8C43 7.448 42.553 7 42 7L32 7L32 5C32 3.3545455 30.645455 2 29 2L21 2 z M 21 4L29 4C29.554545 4 30 4.4454545 30 5L30 7L20 7L20 5C20 4.4454545 20.445455 4 21 4 z M 19 14C19.553 14 20 14.448 20 15L20 40C20 40.552 19.553 41 19 41C18.447 41 18 40.552 18 40L18 15C18 14.448 18.447 14 19 14 z M 25 14C25.553 14 26 14.448 26 15L26 40C26 40.552 25.553 41 25 41C24.447 41 24 40.552 24 40L24 15C24 14.448 24.447 14 25 14 z M 31 14C31.553 14 32 14.448 32 15L32 34.017578C30.953 35.415578 30.257547 37.092875 30.060547 38.921875C30.042547 38.949875 30.018 38.972 30 39L30 15C30 14.448 30.447 14 31 14 z M 40 32C44.4 32 48 35.6 48 40C48 44.4 44.4 48 40 48C35.6 48 32 44.4 32 40C32 35.6 35.6 32 40 32 z M 40 34.060547C39.434 34.060547 39.009766 34.484781 39.009766 35.050781L39.009766 39.009766L35.050781 39.009766C34.484781 39.009766 34.060547 39.434 34.060547 40C34.060547 40.566 34.484781 40.990234 35.050781 40.990234L39.009766 40.990234L39.009766 44.949219C39.009766 45.515219 39.434 45.939453 40 45.939453C40.283 45.939453 40.566031 45.79825 40.707031 45.65625C40.848031 45.51425 40.990234 45.232219 40.990234 44.949219L40.990234 40.990234L44.949219 40.990234C45.232219 40.990234 45.51525 40.849031 45.65625 40.707031C45.79725 40.565031 45.939453 40.283 45.939453 40C45.939453 39.434 45.515219 39.009766 44.949219 39.009766L40.990234 39.009766L40.990234 35.050781C40.990234 34.485781 40.566 34.060547 40 34.060547 z" fill="#F78A09" />
</svg>