<svg xmlns="http://www.w3.org/2000/svg" viewBox="0 0 50 50">
  <path d="M48.605469 5.203125C48.359375 5.015625 48.035156 4.953125 47.738281 5.035156L36.988281 7.964844L25.242188 5.03125C25.078125 4.988281 24.902344 4.988281 24.738281 5.035156L13.988281 7.964844L2.242188 5.03125C1.945313 4.953125 1.625 5.023438 1.386719 5.210938C1.140625 5.402344 1 5.691406 1 6L1 41.691406C1 42.140625 1.300781 42.535156 1.734375 42.65625L13.734375 45.964844C13.90625 46.011719 14.089844 46.011719 14.261719 45.964844L25.011719 43.03125L36.757813 45.96875C36.835938 45.988281 36.917969 46 37 46C37.097656 46 37.195313 45.984375 37.289063 45.957031L48.289063 42.648438C48.710938 42.519531 49 42.132813 49 41.691406L49 6C49 5.6875 48.855469 5.394531 48.605469 5.203125 Z M 10.328125 25.140625C10.1875 25.445313 10.058594 25.742188 9.9375 26.027344C9.777344 26.410156 9.40625 26.640625 9.015625 26.640625C8.886719 26.640625 8.757813 26.617188 8.628906 26.566406C8.121094 26.351563 7.878906 25.765625 8.09375 25.257813C8.21875 24.953125 8.359375 24.632813 8.507813 24.308594C8.738281 23.804688 9.332031 23.585938 9.835938 23.816406C10.335938 24.046875 10.558594 24.640625 10.328125 25.140625 Z M 12.746094 21.050781C12.554688 21.292969 12.367188 21.542969 12.191406 21.800781C11.996094 22.082031 11.683594 22.230469 11.367188 22.230469C11.171875 22.230469 10.972656 22.175781 10.800781 22.054688C10.34375 21.738281 10.230469 21.117188 10.546875 20.664063C10.75 20.371094 10.960938 20.082031 11.179688 19.804688C11.523438 19.375 12.152344 19.300781 12.585938 19.644531C13.015625 19.988281 13.089844 20.617188 12.746094 21.050781 Z M 16.226563 18.507813C16.042969 18.5625 15.859375 18.621094 15.671875 18.6875C15.582031 18.722656 15.492188 18.757813 15.40625 18.796875C15.273438 18.855469 15.136719 18.882813 15 18.882813C14.617188 18.882813 14.25 18.660156 14.085938 18.289063C13.859375 17.785156 14.089844 17.191406 14.59375 16.96875C14.722656 16.910156 14.855469 16.855469 14.988281 16.808594C15.21875 16.726563 15.4375 16.652344 15.65625 16.589844C16.1875 16.433594 16.742188 16.734375 16.898438 17.265625C17.058594 17.792969 16.753906 18.351563 16.226563 18.507813 Z M 21.585938 18.617188C21.394531 18.917969 21.070313 19.082031 20.742188 19.082031C20.558594 19.082031 20.371094 19.03125 20.207031 18.925781C19.964844 18.773438 19.71875 18.644531 19.476563 18.542969C18.964844 18.332031 18.722656 17.746094 18.933594 17.238281C19.144531 16.726563 19.726563 16.484375 20.238281 16.695313C20.589844 16.839844 20.9375 17.023438 21.277344 17.238281C21.742188 17.535156 21.882813 18.152344 21.585938 18.617188 Z M 24.6875 22.539063C24.519531 22.65625 24.324219 22.710938 24.132813 22.710938C23.808594 22.710938 23.492188 22.554688 23.300781 22.269531C23.113281 21.992188 22.933594 21.734375 22.75 21.484375C22.421875 21.042969 22.515625 20.414063 22.960938 20.089844C23.40625 19.761719 24.03125 19.855469 24.359375 20.300781C24.558594 20.566406 24.757813 20.851563 24.960938 21.152344C25.269531 21.609375 25.148438 22.230469 24.6875 22.539063 Z M 27.570313 26.609375C27.382813 26.773438 27.148438 26.855469 26.914063 26.855469C26.636719 26.855469 26.355469 26.738281 26.160156 26.507813C25.925781 26.238281 25.699219 25.964844 25.488281 25.683594C25.152344 25.246094 25.238281 24.617188 25.675781 24.285156C26.117188 23.949219 26.742188 24.03125 27.078125 24.472656C27.265625 24.714844 27.464844 24.960938 27.671875 25.199219C28.03125 25.617188 27.988281 26.246094 27.570313 26.609375 Z M 31.546875 29.628906C31.359375 29.933594 31.03125 30.101563 30.695313 30.101563C30.515625 30.101563 30.335938 30.050781 30.167969 29.949219C29.871094 29.761719 29.574219 29.5625 29.28125 29.355469C28.835938 29.03125 28.734375 28.40625 29.054688 27.957031C29.378906 27.511719 30.003906 27.410156 30.453125 27.730469C30.707031 27.914063 30.964844 28.089844 31.226563 28.253906C31.695313 28.542969 31.839844 29.160156 31.546875 29.628906 Z M 34.203125 31.601563C33.660156 31.507813 33.296875 30.992188 33.390625 30.445313C33.484375 29.902344 34.003906 29.539063 34.546875 29.632813C34.828125 29.679688 35.109375 29.707031 35.367188 29.707031C35.921875 29.707031 36.367188 30.152344 36.367188 30.707031C36.367188 31.257813 35.921875 31.707031 35.367188 31.707031C34.992188 31.703125 34.601563 31.671875 34.203125 31.601563 Z M 43.757813 33.351563C44.117188 33.769531 44.070313 34.398438 43.652344 34.757813C43.460938 34.921875 43.230469 35 43 35C42.71875 35 42.4375 34.882813 42.242188 34.648438L40 32.035156L37.757813 34.648438C37.5625 34.882813 37.28125 35 37 35C36.769531 35 36.539063 34.921875 36.351563 34.757813C35.929688 34.398438 35.882813 33.769531 36.242188 33.351563L38.683594 30.5L36.242188 27.648438C35.882813 27.230469 35.929688 26.601563 36.351563 26.242188C36.769531 25.882813 37.402344 25.929688 37.757813 26.347656L40 28.964844L42.242188 26.351563C42.601563 25.929688 43.230469 25.882813 43.648438 26.242188C44.070313 26.601563 44.117188 27.230469 43.757813 27.652344L41.316406 30.5Z" fill="#F78A09" />
</svg>