<svg xmlns="http://www.w3.org/2000/svg" viewBox="0 0 50 50">
  <path d="M21 2 A 1.0001 1.0001 0 0 0 20 3L20 5L17 5C14.250484 5 12 7.2504839 12 10L12 42C12 44.749516 14.250484 47 17 47L33 47C35.749516 47 38 44.749516 38 42L38 10C38 7.2504839 35.749516 5 33 5L30 5L30 3 A 1.0001 1.0001 0 0 0 29 2L21 2 z M 22 4L28 4L28 6 A 1.0001 1.0001 0 0 0 29 7L33 7C34.668484 7 36 8.3315161 36 10L36 42C36 43.668484 34.668484 45 33 45L17 45C15.331516 45 14 43.668484 14 42L14 10C14 8.3315161 15.331516 7 17 7L21 7 A 1.0001 1.0001 0 0 0 22 6L22 4 z M 17 21C16.448 21 16 21.447 16 22L16 42C16 42.553 16.448 43 17 43L33 43C33.552 43 34 42.553 34 42L34 22C34 21.447 33.552 21 33 21L17 21 z" fill="#F78A09" />
</svg>