<svg xmlns="http://www.w3.org/2000/svg" viewBox="0 0 50 50">
  <path d="M1 0C0.449219 0 0 0.449219 0 1L0 4C0 4.253906 0.105469 4.5 0.28125 4.6875L14.6875 20L29.3125 20L43.71875 4.6875C43.753906 4.652344 43.785156 4.601563 43.8125 4.5625C43.855469 4.5 43.910156 4.445313 43.9375 4.375C43.964844 4.300781 43.957031 4.203125 43.96875 4.125C43.976563 4.078125 44 4.050781 44 4L44 1C44 0.449219 43.554688 0 43 0 Z M 16 22L16 39C16 39.351563 16.199219 39.664063 16.5 39.84375L26.5 45.84375C26.660156 45.9375 26.820313 46 27 46C27.171875 46 27.347656 45.960938 27.5 45.875C27.8125 45.695313 28 45.359375 28 45L28 22 Z M 32.90625 31.96875C32.863281 31.976563 32.820313 31.988281 32.78125 32C32.40625 32.066406 32.105469 32.339844 32 32.703125C31.894531 33.070313 32.003906 33.460938 32.28125 33.71875L39.5625 41L32.28125 48.28125C31.882813 48.679688 31.882813 49.320313 32.28125 49.71875C32.679688 50.117188 33.320313 50.117188 33.71875 49.71875L41 42.4375L48.28125 49.71875C48.679688 50.117188 49.320313 50.117188 49.71875 49.71875C50.117188 49.320313 50.117188 48.679688 49.71875 48.28125L42.4375 41L49.71875 33.71875C50.042969 33.417969 50.128906 32.941406 49.933594 32.546875C49.742188 32.148438 49.308594 31.929688 48.875 32C48.652344 32.023438 48.441406 32.125 48.28125 32.28125L41 39.5625L33.71875 32.28125C33.511719 32.058594 33.210938 31.945313 32.90625 31.96875Z" fill="#F78A09" />
</svg>