<svg xmlns="http://www.w3.org/2000/svg" viewBox="0 0 50 50">
  <path d="M21 2C19.354545 2 18 3.3545455 18 5L18 7L8 7C7.447 7 7 7.448 7 8C7 8.552 7.447 9 8 9L9 9L9 45C9 46.654 10.346 48 12 48L34.037109 48C35.706109 49.249 37.767 50 40 50C45.5 50 50 45.5 50 40C50 34.837 46.035 30.556781 41 30.050781L41 9L42 9C42.553 9 43 8.552 43 8C43 7.448 42.553 7 42 7L32 7L32 5C32 3.3545455 30.645455 2 29 2L21 2 z M 21 4L29 4C29.554545 4 30 4.4454545 30 5L30 7L20 7L20 5C20 4.4454545 20.445455 4 21 4 z M 19 14C19.553 14 20 14.448 20 15L20 40C20 40.552 19.553 41 19 41C18.447 41 18 40.552 18 40L18 15C18 14.448 18.447 14 19 14 z M 25 14C25.553 14 26 14.448 26 15L26 40C26 40.552 25.553 41 25 41C24.447 41 24 40.552 24 40L24 15C24 14.448 24.447 14 25 14 z M 31 14C31.553 14 32 14.448 32 15L32 34.017578C30.953 35.415578 30.257547 37.092875 30.060547 38.921875C30.042547 38.949875 30.018 38.972 30 39L30 15C30 14.448 30.447 14 31 14 z M 40 32C44.4 32 48 35.6 48 40C48 44.4 44.4 48 40 48C35.6 48 32 44.4 32 40C32 35.6 35.6 32 40 32 z M 36.5 35.5C36.25 35.5 36.000781 35.600781 35.800781 35.800781C35.400781 36.200781 35.400781 36.799219 35.800781 37.199219L38.599609 40L35.800781 42.800781C35.400781 43.200781 35.400781 43.799219 35.800781 44.199219C36.200781 44.599219 36.799219 44.599219 37.199219 44.199219L40 41.400391L42.800781 44.199219C43.200781 44.599219 43.799219 44.599219 44.199219 44.199219C44.399219 43.999219 44.5 43.7 44.5 43.5C44.5 43.3 44.399219 43.000781 44.199219 42.800781L41.400391 40L44.199219 37.199219C44.399219 36.999219 44.5 36.7 44.5 36.5C44.5 36.3 44.399219 36.000781 44.199219 35.800781C43.799219 35.400781 43.200781 35.400781 42.800781 35.800781L40 38.599609L37.199219 35.800781C36.999219 35.600781 36.75 35.5 36.5 35.5 z" fill="#F78A09" />
</svg>