<svg xmlns="http://www.w3.org/2000/svg" viewBox="0 0 50 50">
  <path d="M34 0C31.238281 0 29 2.238281 29 5C29 7.761719 31.238281 10 34 10C36.761719 10 39 7.761719 39 5C39 2.238281 36.761719 0 34 0 Z M 32.59375 11C30.195313 11 28.011719 12.3125 26.8125 14.3125L22.625 22L16.125 22C15.125 22 14.230469 22.6875 14.03125 23.6875C13.832031 24.988281 14.832031 26 16.03125 26L24.3125 26C25.011719 26 25.699219 25.601563 26 25L29.03125 19.21875L30 49C30 49.5 30.5 50 31 50L36.59375 50C37.09375 50 37.59375 49.601563 37.59375 49L38 34L39.1875 34C40.1875 34 41 33.1875 41 32.1875L41 16.40625C41 13.304688 38.601563 10.898438 35.5 11 Z M 16 28C15.683594 28 15.367188 28.132813 15.125 28.375L13.375 30.125C12.890625 30.609375 12.890625 31.390625 13.375 31.875L15.125 33.625C15.609375 34.109375 16.390625 34.109375 16.875 33.625L18.625 31.875C19.109375 31.390625 19.109375 30.609375 18.625 30.125L16.875 28.375C16.632813 28.132813 16.316406 28 16 28 Z M 7.875 30.96875C7.84375 30.976563 7.8125 30.988281 7.78125 31C7.265625 31.109375 6.921875 31.601563 7 32.125L8.90625 48.21875L8.90625 48.28125C9.085938 49.183594 9.871094 50 10.90625 50L19.09375 50C20.128906 50 20.914063 49.183594 21.09375 48.28125L21.09375 48.21875L23 32.125C23.070313 31.574219 22.675781 31.070313 22.125 31C21.574219 30.929688 21.070313 31.324219 21 31.875L19.09375 47.96875C19.09375 47.972656 19.082031 48 19.09375 48L10.90625 48C10.917969 48 10.90625 47.972656 10.90625 47.96875L9 31.875C8.976563 31.601563 8.84375 31.351563 8.632813 31.183594C8.417969 31.011719 8.144531 30.933594 7.875 30.96875 Z M 13.25 37C12.558594 37 12 37.558594 12 38.25L12 40.75C12 41.441406 12.558594 42 13.25 42L15.75 42C16.441406 42 17 41.441406 17 40.75L17 38.25C17 37.558594 16.441406 37 15.75 37Z" fill="#F78A09" />
</svg>