<svg xmlns="http://www.w3.org/2000/svg" viewBox="0 0 50 50">
  <path d="M4 2C3.4 2 3 2.4 3 3L3 6C3 6.3 3.1007813 6.4992187 3.3007812 6.6992188L19.300781 23.699219C19.500781 23.899219 19.8 24 20 24L30 24C30.3 24 30.499219 23.899219 30.699219 23.699219L46.699219 6.6992188C46.899219 6.4992188 47 6.3 47 6L47 3C47 2.4 46.6 2 46 2L4 2 z M 19 26L19 41C19 41.4 19.2 41.700391 19.5 41.900391L26.634766 46.181641L27.775391 42.154297L27.917969 41.654297L28.195312 41.376953C28.279312 41.251953 28.403078 41.069578 28.580078 40.892578L31 38.451172L31 26L19 26 z M 45.900391 28C44.850391 28 43.8 28.399219 43 29.199219L42.300781 29.900391L30 42.300781C29.9 42.400781 29.799219 42.599219 29.699219 42.699219L28 48.699219C27.9 48.999219 27.999219 49.399219 28.199219 49.699219C28.499219 49.899219 28.7 50 29 50L29.300781 50L35.300781 48.400391C35.500781 48.400391 35.599219 48.299609 35.699219 48.099609L48.400391 35.5C48.500391 35.4 48.599609 35.299219 48.599609 35.199219L48.800781 35C50.400781 33.4 50.400781 30.799219 48.800781 29.199219C48.000781 28.399219 46.950391 28 45.900391 28 z M 43.800781 31.400391L46.800781 34.400391L34.5 46.5L31.599609 43.599609L31.599609 43.5L43.800781 31.400391 z" fill="#F78A09" />
</svg>