<svg xmlns="http://www.w3.org/2000/svg" viewBox="0 0 50 50">
  <path d="M4 2C3.398438 2 3 2.398438 3 3L3 6C3 6.300781 3.113281 6.488281 3.3125 6.6875L19.3125 23.6875C19.511719 23.886719 19.800781 24 20 24L30 24C30.300781 24 30.488281 23.886719 30.6875 23.6875L46.6875 6.6875C46.886719 6.488281 47 6.300781 47 6L47 3C47 2.398438 46.601563 2 46 2 Z M 19 26L19 41C19 41.398438 19.199219 41.707031 19.5 41.90625L29.5 47.90625C29.601563 48.007813 29.800781 48 30 48C30.199219 48 30.300781 48.007813 30.5 47.90625C30.800781 47.707031 31 47.398438 31 47L31 26Z" fill="#F78A09" />
</svg>