<svg xmlns="http://www.w3.org/2000/svg" viewBox="0 0 50 50">
  <path d="M38.046875 1.632813L28.535156 9.953125L35.046875 16.464844L37.671875 13.460938L37.789063 13.578125C38.167969 13.953125 38.1875 14.535156 37.839844 14.9375L24.734375 29.9375C23.707031 31.121094 23.773438 32.917969 24.878906 34.023438L31.367188 40.75C31.136719 41.289063 31 41.875 31 42.5C31 44.980469 33.019531 47 35.5 47C37.808594 47 39.695313 45.242188 39.949219 43L44 43C45.652344 43 47 41.652344 47 40L47 33.796875C47 33.101563 46.816406 32.417969 46.472656 31.8125L43.734375 27.015625C43.019531 25.773438 41.691406 25 40.261719 25L36 25C34.347656 25 33 26.347656 33 28L33 39.5625L31 37.484375L31 25.804688L39.347656 16.25C40.375 15.066406 40.3125 13.269531 39.203125 12.160156L37.308594 10.265625L35.519531 8.480469L35.519531 8.476563L36.9375 7.0625L40.3125 10.445313L43.367188 6.953125 Z M 29 12C28.449219 12 28 12.449219 28 13C28 13.550781 28.449219 14 29 14C29.550781 14 30 13.550781 30 13C30 12.449219 29.550781 12 29 12 Z M 25 14C24.449219 14 24 14.449219 24 15C24 15.550781 24.449219 16 25 16C25.550781 16 26 15.550781 26 15C26 14.449219 25.550781 14 25 14 Z M 31 14C30.449219 14 30 14.449219 30 15C30 15.550781 30.449219 16 31 16C31.550781 16 32 15.550781 32 15C32 14.449219 31.550781 14 31 14 Z M 28 15C27.449219 15 27 15.449219 27 16C27 16.550781 27.449219 17 28 17C28.550781 17 29 16.550781 29 16C29 15.449219 28.550781 15 28 15 Z M 26 17C25.449219 17 25 17.449219 25 18C25 18.550781 25.449219 19 26 19C26.550781 19 27 18.550781 27 18C27 17.449219 26.550781 17 26 17 Z M 30 17C29.449219 17 29 17.449219 29 18C29 18.550781 29.449219 19 30 19C30.550781 19 31 18.550781 31 18C31 17.449219 30.550781 17 30 17 Z M 9 20C8.636719 20 8.304688 20.195313 8.125 20.515625L3.125 29.515625C3.011719 29.722656 2.972656 29.960938 3.019531 30.195313L5.019531 40.195313C5.113281 40.664063 5.523438 41 6 41L7.273438 41C7.265625 41.027344 7.261719 41.054688 7.253906 41.078125C7.183594 41.285156 7.121094 41.488281 7.078125 41.703125C7.027344 41.960938 7 42.226563 7 42.5C7 42.808594 7.03125 43.113281 7.09375 43.40625C7.453125 45.164063 8.835938 46.546875 10.59375 46.90625C10.886719 46.96875 11.191406 47 11.5 47C11.78125 47 12.050781 46.96875 12.316406 46.917969C12.363281 46.910156 12.40625 46.902344 12.453125 46.890625C12.691406 46.839844 12.917969 46.765625 13.140625 46.675781C13.214844 46.648438 13.289063 46.613281 13.363281 46.578125C13.550781 46.492188 13.734375 46.398438 13.90625 46.285156C14.011719 46.21875 14.109375 46.144531 14.207031 46.066406C14.285156 46.007813 14.359375 45.945313 14.433594 45.878906C14.605469 45.726563 14.769531 45.5625 14.917969 45.386719C14.945313 45.355469 14.972656 45.328125 15 45.296875C15.824219 46.324219 17.078125 47 18.5 47C20.980469 47 23 44.980469 23 42.5C23 41.972656 22.894531 41.472656 22.722656 41L28.800781 41L23.453125 35.421875C21.613281 33.585938 21.511719 30.601563 23.226563 28.621094L30.761719 20L15.265625 20L10.421875 38.144531C9.496094 38.378906 8.6875 38.902344 8.085938 39.609375L7.96875 39.578125L13.191406 20 Z M 38.730469 20L36.980469 22L41.699219 22L44.445313 23.832031C44.617188 23.945313 44.808594 24 45 24C45.320313 24 45.640625 23.84375 45.832031 23.554688C46.140625 23.09375 46.015625 22.472656 45.554688 22.167969L42.554688 20.167969C42.390625 20.058594 42.195313 20 42 20 Z M 39 27L40.261719 27C40.976563 27 41.640625 27.386719 41.996094 28.007813L44.84375 33L45 34L40 34C39.449219 34 39 33.550781 39 33 Z M 11.5 40C11.671875 40 11.839844 40.015625 12.003906 40.050781C12.003906 40.050781 12.007813 40.050781 12.007813 40.050781C13.144531 40.285156 14 41.296875 14 42.5C14 43.707031 13.140625 44.714844 12.003906 44.949219C11.839844 44.980469 11.671875 45 11.5 45C11.328125 45 11.160156 44.980469 10.996094 44.949219C10.023438 44.75 9.253906 43.980469 9.050781 43.007813C9.050781 43.007813 9.050781 43.003906 9.050781 43.003906C9.015625 42.839844 9 42.671875 9 42.5C9 42.328125 9.019531 42.160156 9.050781 41.996094C9.25 41.023438 10.019531 40.253906 10.992188 40.050781C11.15625 40.019531 11.324219 40 11.5 40 Z M 18.5 40C19.878906 40 21 41.121094 21 42.5C21 43.878906 19.878906 45 18.5 45C17.121094 45 16 43.878906 16 42.5C16 41.121094 17.121094 40 18.5 40 Z M 35.5 40C36.878906 40 38 41.121094 38 42.5C38 43.878906 36.878906 45 35.5 45C34.121094 45 33 43.878906 33 42.5C33 41.121094 34.121094 40 35.5 40Z" fill="#F78A09" />
</svg>