<svg xmlns="http://www.w3.org/2000/svg" viewBox="0 0 30 30">
  <path d="M7.0703125 5C6.4023125 5 5.77725 5.333625 5.40625 5.890625L0 14L0 21C0 22.105 0.895 23 2 23L3.0507812 23C3.2981765 24.685411 4.7500665 26 6.5 26C8.2499335 26 9.7018235 24.685411 9.9492188 23L16 23L16 7C16 5.895 15.105 5 14 5L7.0703125 5 z M 8 9C8.552 9 9 9.448 9 10L9 17C9 17.552 8.552 18 8 18C7.448 18 7 17.552 7 17L7 10C7 9.448 7.448 9 8 9 z M 12 9C12.552 9 13 9.448 13 10L13 17C13 17.552 12.552 18 12 18C11.448 18 11 17.552 11 17L11 10C11 9.448 11.448 9 12 9 z M 20 9C18.895 9 18 9.895 18 11L18 23L20.050781 23C20.298177 24.685411 21.750067 26 23.5 26C25.249933 26 26.701823 24.685411 26.949219 23L29 23 A 1.0001 1.0001 0 1 0 29 21L29 16L23 16L23 12C23 11.448 23.448 11 24 11L26.857422 11L26.519531 10.212891C26.204531 9.4778906 25.481641 9 24.681641 9L20 9 z M 4 13C4.552 13 5 13.448 5 14L5 17C5 17.552 4.552 18 4 18C3.448 18 3 17.552 3 17L3 14C3 13.448 3.448 13 4 13 z M 6.5 21C7.3402718 21 8 21.659728 8 22.5C8 23.340272 7.3402718 24 6.5 24C5.6597282 24 5 23.340272 5 22.5C5 21.659728 5.6597282 21 6.5 21 z M 23.5 21C24.340272 21 25 21.659728 25 22.5C25 23.340272 24.340272 24 23.5 24C22.659728 24 22 23.340272 22 22.5C22 21.659728 22.659728 21 23.5 21 z" fill="#F78A09" />
</svg>