<svg xmlns="http://www.w3.org/2000/svg" viewBox="0 0 128 128">
  <path d="M23.1,113.2h40h25c1.7,0,3-1.3,3-3v-10c0-1.7-1.3-3-3-3s-3,1.3-3,3v7h-19v-7c0-1.7-1.3-3-3-3s-3,1.3-3,3v7H28.6L43,84.9 c8.4,7.1,18.7,10.7,29.1,10.7c11.5,0,23-4.4,31.8-13.2c8.9-8.9,1.9-29.9-15.9-47.7C75.8,22.4,61.6,14.8,51,14.8 c-4.4,0-8.1,1.4-10.7,3.9c-8.5,8.5-13.2,19.8-13.2,31.8c0,11.2,4.1,21.8,11.5,30l-18,27.9c-0.6,0.9-0.6,2.1-0.1,3.1 C21,112.6,22,113.2,23.1,113.2z M99.7,78.1c-1.4,1.4-3.6,2.2-6.4,2.2c-8.4,0-20.2-6.2-30.7-16l9.9-9.9c1.2-1.2,1.2-3.1,0-4.2 c-1.2-1.2-3.1-1.2-4.2,0l-9.9,9.9c-1.7-1.8-3.2-3.6-4.7-5.4c-5.1-10.1-5.9-19.2-1.3-23.8c4.6-4.6,13.7-3.8,23.7,1.3 c2.6,2,5.2,4.3,7.6,6.8C96.8,51.9,106.6,71.3,99.7,78.1z M36.8,34c0.4,2,0.9,4.1,1.8,6.4C41.7,49,48,58.2,56.2,66.5 C66.7,77,78.7,84.1,88.7,85.9c-14.5,6.8-32.2,4.2-44.1-7.7c0,0,0,0,0,0l0,0C37.2,70.8,33.1,61,33.1,50.6 C33.1,44.7,34.4,39.1,36.8,34z" fill="#F78A09" />
</svg>