<svg xmlns="http://www.w3.org/2000/svg" viewBox="0 0 50 50">
  <path d="M44 2C42.179688 2.003906 40.589844 3.234375 40.132813 5L16 5C12.257813 5 9.109375 7.59375 8.242188 11.078125C6.363281 11.4375 5.003906 13.082031 5 15C5.003906 16.839844 6.261719 18.445313 8.050781 18.878906C8.492188 22.875 11.890625 26 16 26L34 26C36.703125 26 38.972656 27.765625 39.730469 30.214844C38.101563 30.757813 37.003906 32.28125 37 34C37 35.796875 38.203125 37.371094 39.933594 37.851563C39.523438 40.769531 37.035156 43 34 43L9.867188 43C9.414063 41.234375 7.824219 40 6 40C3.789063 40 2 41.789063 2 44C2 46.210938 3.789063 48 6 48C7.820313 47.996094 9.410156 46.765625 9.867188 45L34 45C38.109375 45 41.507813 41.875 41.949219 37.878906C43.738281 37.445313 44.996094 35.839844 45 34C45 32.082031 43.636719 30.4375 41.753906 30.074219C40.890625 26.59375 37.742188 24 34 24L16 24C12.964844 24 10.480469 21.769531 10.066406 18.855469C11.800781 18.375 13 16.796875 13 15C13 13.28125 11.898438 11.757813 10.269531 11.210938C11.027344 8.765625 13.296875 7 16 7L40.128906 7C40.585938 8.765625 42.175781 10 44 10C46.210938 10 48 8.210938 48 6C48 3.789063 46.210938 2 44 2Z" fill="#F78A09" />
</svg>