<svg xmlns="http://www.w3.org/2000/svg" viewBox="0 0 128 128">
  <path d="M93.962891 13.849609C91.100391 13.849609 88.250391 14.799219 85.900391 16.699219L72.599609 27.300781C71.299609 28.300781 71.099609 30.2 72.099609 31.5C73.099609 32.8 75.000781 33 76.300781 32L89.599609 21.400391C92.199609 19.300391 95.800781 19.300391 98.300781 21.400391L116 35.400391L116 117.69922L102.09961 106.59961C97.299609 102.79961 90.600391 102.79961 85.900391 106.59961L72.599609 117.19922C71.299609 118.19922 71.099609 120.10039 72.099609 121.40039C73.099609 122.70039 75.000781 122.90039 76.300781 121.90039L89.599609 111.30078C92.199609 109.20078 95.800781 109.20078 98.300781 111.30078L117.09961 126.30078C117.59961 126.70078 118.3 127 119 127C119.4 127 119.90078 126.89922 120.30078 126.69922C121.30078 126.19922 122 125.1 122 124L122 34C122 33.1 121.60039 32.199219 120.90039 31.699219L102.09961 16.699219C99.699609 14.799219 96.825391 13.849609 93.962891 13.849609 z M 94.011719 27.625C93.349219 27.625 92.699219 27.850781 92.199219 28.300781L80.800781 37.400391C79.100781 38.800391 77.199219 40.000391 75.199219 40.900391C71.999219 42.400391 69.399219 45.000781 68.199219 48.300781L68.199219 48.400391C66.299219 53.100391 71.300391 66 77.400391 66C85.100391 66 88.799609 50.5 91.099609 50.5C92.599609 50.5 94.899609 55.199219 97.599609 58.699219C99.399609 61.099219 102.19922 62.400391 105.19922 62.400391C107.29922 62.500391 109 60.699609 109 58.599609L109 40.199219C109 39.299219 108.60039 38.400391 107.90039 37.900391L95.900391 28.300781C95.350391 27.850781 94.674219 27.625 94.011719 27.625 z M 14 31C9.6 31 6 34.6 6 39L6 119C6 123.4 9.6 127 14 127L62 127C63.7 127 65 125.7 65 124C65 122.3 63.7 121 62 121L14 121C12.9 121 12 120.1 12 119L12 39C12 37.9 12.9 37 14 37L62 37C63.7 37 65 35.7 65 34C65 32.3 63.7 31 62 31L14 31 z M 41.976562 55.634766C36.915039 55.667969 31.75 59.988281 31 66.300781C30.3 72.300781 26.699609 78.499609 23.599609 81.599609C23.199609 81.999609 22.699219 82.299609 22.199219 82.599609C20.099219 83.599609 18.900391 85.899219 18.900391 88.199219L18.900391 111C18.900391 112.7 20.200391 114 21.900391 114L41 114C41.6 114 42.300781 113.80039 42.800781 113.40039C44.400781 112.30039 45.699219 110.79922 46.699219 109.19922C47.799219 107.29922 49.099219 105.10078 49.699219 102.80078C53.999219 86.300781 39.700781 85.699609 39.300781 82.099609C38.900781 77.899609 44.2 74.899219 47.5 71.699219C50.7 68.499219 51.6 63.599219 50 60.699219C48.0125 57.136719 45.013477 55.614844 41.976562 55.634766 z M 64.044922 71.234375C60.711133 71.176611 58.400391 75.599609 58.400391 75.599609C55.400391 78.599609 53.700391 77.099219 52.400391 80.199219C51.000391 83.599219 52.000391 89.7 57.900391 87C61.900391 85.1 62.900391 84.099219 64.900391 80.699219C67.800391 75.699219 68.6 73.599609 66.5 72.099609C65.6375 71.499609 64.814258 71.247705 64.044922 71.234375 z M 99.482422 72.941406C96.853906 73.084375 93.186719 74.388281 88.199219 77.800781C84.399219 80.400781 77.700781 75 74.800781 79C72.000781 82.9 86.699609 94.8 91.599609 92.5C99.899609 88.6 105.30078 80.5 105.30078 77.5C105.36328 75.6875 103.86328 72.703125 99.482422 72.941406 z" fill="#F78A09" />
</svg>