<svg xmlns="http://www.w3.org/2000/svg" viewBox="0 0 50 50">
  <path d="M25 1C19.484375 1 15 5.484375 15 11C15 16.515625 19.484375 21 25 21C30.515625 21 35 16.515625 35 11C35 5.484375 30.515625 1 25 1 Z M 25 5C25.550781 5 26 5.445313 26 6C26 6.554688 25.550781 7 25 7C22.792969 7 21 8.792969 21 11C21 11.554688 20.550781 12 20 12C19.449219 12 19 11.554688 19 11C19 7.691406 21.691406 5 25 5 Z M 22 22.605469L22 43.246094L25 48.988281L28 43.246094L28 22.605469C27.039063 22.855469 26.035156 23 25 23C23.964844 23 22.960938 22.855469 22 22.605469Z" fill="#F78A09" />
</svg>