<svg xmlns="http://www.w3.org/2000/svg" viewBox="0 0 128 128">
  <path d="M64 14C42.7 14 25.199609 31.299609 25.099609 52.599609C25.199609 60.599609 27.600781 68.4 32.300781 75C32.400781 75.2 32.499219 75.399609 32.699219 75.599609L60.099609 112L60.199219 112.09961C61.199219 113.29961 62.6 113.90039 64 113.90039C65.4 113.90039 66.800781 113.19961 67.800781 112.09961L67.900391 112L95.199219 75.599609C95.499219 75.299609 95.700391 75.099219 95.900391 74.699219C100.40039 68.199219 102.80078 60.499609 102.80078 52.599609C102.80078 31.399609 85.4 14 64 14 z M 64 20C82.1 20 96.800781 34.699219 96.800781 52.699219C96.800781 59.399219 94.800391 65.800391 90.900391 71.400391C90.800391 71.500391 90.699219 71.599219 90.699219 71.699219L64 107.30078L37.400391 71.800781L37.300781 71.699219C37.300781 71.599219 37.199609 71.6 37.099609 71.5C33.199609 65.9 31.099609 59.399219 31.099609 52.699219C31.199609 34.599219 46 20 64 20 z M 64 33.099609C53.6 33.099609 45.099609 41.300391 45.099609 51.400391C45.099609 61.500391 53.6 69.800781 64 69.800781C74.4 69.800781 82.900391 61.6 82.900391 51.5C82.900391 41.4 74.4 33.099609 64 33.099609 z M 64 39.099609C71.1 39.099609 76.900391 44.600391 76.900391 51.400391C76.900391 58.200391 71.1 63.800781 64 63.800781C56.9 63.800781 51.099609 58.3 51.099609 51.5C51.099609 44.7 56.9 39.099609 64 39.099609 z" fill="#F78A09" />
</svg>