<svg xmlns="http://www.w3.org/2000/svg" viewBox="0 0 128 128">
  <path d="M94 13C85.7 13 79 19.7 79 28C79 31.2 80.000391 34.200781 81.900391 36.800781L91.599609 50C92.199609 50.8 93.1 51.199219 94 51.199219C95 51.199219 95.800391 50.7 96.400391 50L106.09961 36.800781C107.99961 34.200781 109 31.2 109 28C109 19.7 102.3 13 94 13 z M 94 19C99 19 103 23 103 28C103 29.9 102.40078 31.699219 101.30078 33.199219L94 43.099609L86.699219 33.199219C85.599219 31.699219 85 29.9 85 28C85 23 89 19 94 19 z M 34 53C20.2 53 9 64.2 9 78C9 83.3 10.599219 88.399609 13.699219 92.599609C13.799219 92.799609 13.999609 92.899609 14.099609 93.099609L31.599609 116.80078C32.199609 117.50078 33 118 34 118C35 118 35.800391 117.50078 36.400391 116.80078L53.900391 93.099609L54.199219 92.699219L54.300781 92.599609C57.400781 88.299609 59 83.3 59 78C59 64.2 47.8 53 34 53 z M 88.664062 53.707031C87.702148 53.665039 86.724609 54.087891 86.099609 54.900391L84.300781 57.300781C83.300781 58.600781 83.500391 60.5 84.900391 61.5C85.400391 61.9 86.099219 62.099609 86.699219 62.099609C87.599219 62.099609 88.499609 61.700391 89.099609 60.900391L90.900391 58.5C91.900391 57.2 91.600781 55.300781 90.300781 54.300781C89.813281 53.925781 89.241211 53.732227 88.664062 53.707031 z M 34 59C44.5 59 53 67.5 53 78C53 82 51.800391 85.899609 49.400391 89.099609L49.400391 89.199219L34 110L18.900391 89.5C18.800391 89.4 18.699609 89.299609 18.599609 89.099609C16.199609 85.899609 15 82 15 78C15 67.5 23.5 59 34 59 z M 79.664062 65.707031C78.702148 65.665039 77.724609 66.087891 77.099609 66.900391L75.300781 69.300781C74.300781 70.600781 74.600391 72.5 75.900391 73.5C76.400391 73.9 77.099219 74.099609 77.699219 74.099609C78.599219 74.099609 79.499609 73.700391 80.099609 72.900391L81.900391 70.5C82.900391 69.2 82.600781 67.300781 81.300781 66.300781C80.813281 65.925781 80.241211 65.732227 79.664062 65.707031 z M 34 68 A 10 10 0 0 0 24 78 A 10 10 0 0 0 34 88 A 10 10 0 0 0 44 78 A 10 10 0 0 0 34 68 z M 76.337891 77.537109C75.575391 77.499609 74.799219 77.750781 74.199219 78.300781C72.899219 79.300781 72.8 81.2 74 82.5L76 84.699219C76.6 85.299219 77.399219 85.699219 78.199219 85.699219C78.899219 85.699219 79.699219 85.400391 80.199219 84.900391C81.399219 83.800391 81.500391 81.899219 80.400391 80.699219L78.400391 78.5C77.850391 77.9 77.100391 77.574609 76.337891 77.537109 z M 86.4375 88.537109C85.675 88.499609 84.900781 88.750781 84.300781 89.300781C83.100781 90.400781 82.999609 92.3 84.099609 93.5L86.099609 95.699219C86.699609 96.299219 87.500781 96.699219 88.300781 96.699219C89.000781 96.699219 89.800781 96.400391 90.300781 95.900391C91.500781 94.800391 91.6 92.899219 90.5 91.699219L88.5 89.5C87.95 88.9 87.2 88.574609 86.4375 88.537109 z M 96.636719 99.537109C95.874219 99.499609 95.1 99.750781 94.5 100.30078C93.3 101.40078 93.200781 103.3 94.300781 104.5L96.300781 106.69922C96.900781 107.29922 97.7 107.69922 98.5 107.69922C99.2 107.69922 100 107.40039 100.5 106.90039C101.7 105.80039 101.79922 103.89922 100.69922 102.69922L98.699219 100.5C98.149219 99.9 97.399219 99.574609 96.636719 99.537109 z M 106.83789 110.53711C106.07539 110.49961 105.29922 110.75078 104.69922 111.30078C103.69922 112.20078 103.49961 113.70039 104.09961 114.90039L104.09961 115C104.09961 116.7 105.39961 118 107.09961 118L108.09961 118C109.29961 118 110.40078 117.29922 110.80078 116.19922C111.30078 115.09922 111.10078 113.8 110.30078 113L108.90039 111.5C108.35039 110.9 107.60039 110.57461 106.83789 110.53711 z M 47 112C45.3 112 44 113.3 44 115C44 116.7 45.3 118 47 118L50 118C51.7 118 53 116.7 53 115C53 113.3 51.7 112 50 112L47 112 z M 62 112C60.3 112 59 113.3 59 115C59 116.7 60.3 118 62 118L65 118C66.7 118 68 116.7 68 115C68 113.3 66.7 112 65 112L62 112 z M 77 112C75.3 112 74 113.3 74 115C74 116.7 75.3 118 77 118L80 118C81.7 118 83 116.7 83 115C83 113.3 81.7 112 80 112L77 112 z M 92 112C90.3 112 89 113.3 89 115C89 116.7 90.3 118 92 118L95 118C96.7 118 98 116.7 98 115C98 113.3 96.7 112 95 112L92 112 z" fill="#F78A09" />
</svg>