<svg xmlns="http://www.w3.org/2000/svg" viewBox="0 0 128 128">
  <path d="M99 0.80078125C83.8 0.80078125 71.5 12.999219 71 28.699219C70.6 43.199219 84.500781 62.300781 92.800781 72.300781C94.300781 74.100781 96.6 75.199219 99 75.199219C101.4 75.199219 103.59922 74.100781 105.19922 72.300781C113.49922 62.200781 127.5 43.199219 127 28.699219C126.5 12.999219 114.2 0.80078125 99 0.80078125 z M 99 18.800781C104.5 18.800781 109 23.300781 109 28.800781C109 34.300781 104.5 38.800781 99 38.800781C93.5 38.800781 89 34.300781 89 28.800781C89 23.300781 93.5 18.800781 99 18.800781 z M 61.199219 69C57.699219 69 54.699609 70.9 53.099609 74C51.599609 77.1 51.9 80.7 54 83.5L79.099609 116.19922C79.799609 117.09922 79.900391 118.30039 79.400391 119.40039C78.900391 120.50039 78.000781 121 76.800781 121L36 121C34.3 121 33 122.3 33 124C33 125.7 34.3 127 36 127L76.800781 127C80.300781 127 83.300391 125.1 84.900391 122C86.400391 118.9 86.1 115.3 84 112.5L58.800781 79.800781C58.100781 78.900781 58 77.699609 58.5 76.599609C59 75.499609 59.999219 75 61.199219 75L79 75C80.7 75 82 73.7 82 72C82 70.3 80.7 69 79 69L61.199219 69 z M 19 79.900391C9.2 79.900391 1.3 87.800781 1 97.800781C0.7 106.90078 9.3003906 118.60078 14.400391 124.80078C15.500391 126.20078 17.2 127 19 127C20.8 127 22.499609 126.20078 23.599609 124.80078C28.699609 118.60078 37.3 106.90078 37 97.800781C36.7 87.800781 28.8 79.900391 19 79.900391 z M 19 91.900391C22.3 91.900391 25 94.600391 25 97.900391C25 101.20039 22.3 103.90039 19 103.90039C15.7 103.90039 13 101.20039 13 97.900391C13 94.600391 15.7 91.900391 19 91.900391 z" fill="#F78A09" />
</svg>