<svg xmlns="http://www.w3.org/2000/svg" viewBox="0 0 50 50">
  <path d="M6 3C3.789063 3 2 4.789063 2 7C2 9.210938 3.789063 11 6 11C8.210938 11 10 9.210938 10 7C10 4.789063 8.210938 3 6 3 Z M 12 6C11.449219 6 11 6.449219 11 7C11 7.550781 11.449219 8 12 8C12.550781 8 13 7.550781 13 7C13 6.449219 12.550781 6 12 6 Z M 16 6C15.449219 6 15 6.449219 15 7C15 7.550781 15.449219 8 16 8C16.550781 8 17 7.550781 17 7C17 6.449219 16.550781 6 16 6 Z M 20 6C19.449219 6 19 6.449219 19 7C19 7.550781 19.449219 8 20 8C20.550781 8 21 7.550781 21 7C21 6.449219 20.550781 6 20 6 Z M 24 6C23.449219 6 23 6.449219 23 7C23 7.550781 23.449219 8 24 8C24.550781 8 25 7.550781 25 7C25 6.449219 24.550781 6 24 6 Z M 28 6C27.449219 6 27 6.449219 27 7C27 7.550781 27.449219 8 28 8C28.550781 8 29 7.550781 29 7C29 6.449219 28.550781 6 28 6 Z M 32 6C31.449219 6 31 6.449219 31 7C31 7.550781 31.449219 8 32 8C32.550781 8 33 7.550781 33 7C33 6.449219 32.550781 6 32 6 Z M 36 6C35.449219 6 35 6.449219 35 7C35 7.550781 35.449219 8 36 8C36.550781 8 37 7.550781 37 7C37 6.449219 36.550781 6 36 6 Z M 40 6C39.449219 6 39 6.449219 39 7C39 7.550781 39.449219 8 40 8C40.550781 8 41 7.550781 41 7C41 6.449219 40.550781 6 40 6 Z M 44 6C43.449219 6 43 6.449219 43 7C43 7.550781 43.449219 8 44 8C44.550781 8 45 7.550781 45 7C45 6.449219 44.550781 6 44 6 Z M 44 10C43.449219 10 43 10.449219 43 11C43 11.550781 43.449219 12 44 12C44.550781 12 45 11.550781 45 11C45 10.449219 44.550781 10 44 10 Z M 24 14C20.691406 14 18 16.691406 18 20C18 22.957031 22.617188 30.652344 23.144531 31.519531C23.328125 31.816406 23.648438 32 24 32C24.351563 32 24.671875 31.816406 24.855469 31.519531C25.382813 30.652344 30 22.957031 30 20C30 16.691406 27.308594 14 24 14 Z M 44 14C43.449219 14 43 14.449219 43 15C43 15.550781 43.449219 16 44 16C44.550781 16 45 15.550781 45 15C45 14.449219 44.550781 14 44 14 Z M 44 17C41.789063 17 40 18.789063 40 21C40 23.210938 41.789063 25 44 25C46.210938 25 48 23.210938 48 21C48 18.789063 46.210938 17 44 17 Z M 24 18C25.105469 18 26 18.894531 26 20C26 21.105469 25.105469 22 24 22C22.894531 22 22 21.105469 22 20C22 18.894531 22.894531 18 24 18 Z M 44 26C43.449219 26 43 26.449219 43 27C43 27.550781 43.449219 28 44 28C44.550781 28 45 27.550781 45 27C45 26.449219 44.550781 26 44 26 Z M 4 30C3.449219 30 3 30.449219 3 31C3 31.550781 3.449219 32 4 32C4.550781 32 5 31.550781 5 31C5 30.449219 4.550781 30 4 30 Z M 8 30C7.449219 30 7 30.449219 7 31C7 31.550781 7.449219 32 8 32C8.550781 32 9 31.550781 9 31C9 30.449219 8.550781 30 8 30 Z M 12 30C11.449219 30 11 30.449219 11 31C11 31.550781 11.449219 32 12 32C12.550781 32 13 31.550781 13 31C13 30.449219 12.550781 30 12 30 Z M 16 30C15.449219 30 15 30.449219 15 31C15 31.550781 15.449219 32 16 32C16.550781 32 17 31.550781 17 31C17 30.449219 16.550781 30 16 30 Z M 20 30C19.449219 30 19 30.449219 19 31C19 31.550781 19.449219 32 20 32C20.550781 32 21 31.550781 21 31C21 30.449219 20.550781 30 20 30 Z M 28 30C27.449219 30 27 30.449219 27 31C27 31.550781 27.449219 32 28 32C28.550781 32 29 31.550781 29 31C29 30.449219 28.550781 30 28 30 Z M 32 30C31.449219 30 31 30.449219 31 31C31 31.550781 31.449219 32 32 32C32.550781 32 33 31.550781 33 31C33 30.449219 32.550781 30 32 30 Z M 36 30C35.449219 30 35 30.449219 35 31C35 31.550781 35.449219 32 36 32C36.550781 32 37 31.550781 37 31C37 30.449219 36.550781 30 36 30 Z M 40 30C39.449219 30 39 30.449219 39 31C39 31.550781 39.449219 32 40 32C40.550781 32 41 31.550781 41 31C41 30.449219 40.550781 30 40 30 Z M 44 30C43.449219 30 43 30.449219 43 31C43 31.550781 43.449219 32 44 32C44.550781 32 45 31.550781 45 31C45 30.449219 44.550781 30 44 30 Z M 4 34C3.449219 34 3 34.449219 3 35C3 35.550781 3.449219 36 4 36C4.550781 36 5 35.550781 5 35C5 34.449219 4.550781 34 4 34 Z M 4 38C3.449219 38 3 38.449219 3 39C3 39.550781 3.449219 40 4 40C4.550781 40 5 39.550781 5 39C5 38.449219 4.550781 38 4 38 Z M 43 39C40.789063 39 39 40.789063 39 43C39 45.210938 40.789063 47 43 47C45.210938 47 47 45.210938 47 43C47 40.789063 45.210938 39 43 39 Z M 4 42C3.449219 42 3 42.449219 3 43C3 43.550781 3.449219 44 4 44C4.550781 44 5 43.550781 5 43C5 42.449219 4.550781 42 4 42 Z M 8 42C7.449219 42 7 42.449219 7 43C7 43.550781 7.449219 44 8 44C8.550781 44 9 43.550781 9 43C9 42.449219 8.550781 42 8 42 Z M 12 42C11.449219 42 11 42.449219 11 43C11 43.550781 11.449219 44 12 44C12.550781 44 13 43.550781 13 43C13 42.449219 12.550781 42 12 42 Z M 16 42C15.449219 42 15 42.449219 15 43C15 43.550781 15.449219 44 16 44C16.550781 44 17 43.550781 17 43C17 42.449219 16.550781 42 16 42 Z M 20 42C19.449219 42 19 42.449219 19 43C19 43.550781 19.449219 44 20 44C20.550781 44 21 43.550781 21 43C21 42.449219 20.550781 42 20 42 Z M 24 42C23.449219 42 23 42.449219 23 43C23 43.550781 23.449219 44 24 44C24.550781 44 25 43.550781 25 43C25 42.449219 24.550781 42 24 42 Z M 28 42C27.449219 42 27 42.449219 27 43C27 43.550781 27.449219 44 28 44C28.550781 44 29 43.550781 29 43C29 42.449219 28.550781 42 28 42 Z M 32 42C31.449219 42 31 42.449219 31 43C31 43.550781 31.449219 44 32 44C32.550781 44 33 43.550781 33 43C33 42.449219 32.550781 42 32 42 Z M 36 42C35.449219 42 35 42.449219 35 43C35 43.550781 35.449219 44 36 44C36.550781 44 37 43.550781 37 43C37 42.449219 36.550781 42 36 42Z" fill="#F78A09" />
</svg>