<svg xmlns="http://www.w3.org/2000/svg" viewBox="0 0 128 128">
  <path d="M64 19C52.7 19 42.4 23.300781 34.5 30.300781L30.400391 26.199219C29.200391 24.999219 27.299219 24.999219 26.199219 26.199219C24.999219 27.399219 24.999219 29.300391 26.199219 30.400391L30.300781 34.5C23.600781 42.5 19.5 52.8 19.5 64C19.5 75.2 23.600391 85.500391 30.400391 93.400391L26.300781 97.5C25.100781 98.7 25.100781 100.59922 26.300781 101.69922C26.900781 102.29922 27.700391 102.59961 28.400391 102.59961C29.100391 102.59961 29.9 102.29922 30.5 101.69922L34.599609 97.599609C42.499609 104.59961 52.799609 108.90039 64.099609 108.90039C75.399609 108.90039 85.699609 104.59961 93.599609 97.599609L97.699219 101.69922C98.299219 102.29922 99.100781 102.59961 99.800781 102.59961C100.50078 102.59961 101.30039 102.29922 101.90039 101.69922C103.10039 100.49922 103.10039 98.6 101.90039 97.5L97.800781 93.400391C104.60078 85.500391 108.69922 75.2 108.69922 64C108.69922 52.8 104.39922 42.499609 97.699219 34.599609L101.80078 30.5C103.00078 29.3 103.00078 27.400781 101.80078 26.300781C100.60078 25.100781 98.699609 25.100781 97.599609 26.300781L93.5 30.400391C85.6 23.300391 75.3 19 64 19 z M 64 25C85.2 25 102.5 42.5 102.5 64C102.5 85.5 85.2 103 64 103C42.8 103 25.5 85.5 25.5 64C25.5 42.5 42.8 25 64 25 z M 64 32C46.4 32 32 46.4 32 64C32 81.6 46.4 96 64 96C81.6 96 96 81.6 96 64C96 46.4 81.6 32 64 32 z M 64 38C78.3 38 90 49.7 90 64C90 68.6 88.799219 72.899609 86.699219 76.599609C86.699219 76.599609 79.6 73.600391 73.5 70.400391C71.4 73.500391 67.9 75.5 64 75.5C60.1 75.5 56.5 73.500391 54.5 70.400391C48.4 73.500391 41.300781 76.599609 41.300781 76.599609C39.200781 72.899609 38 68.6 38 64C38 49.7 49.7 38 64 38 z M 64 58.5 A 5.5 5.5 0 0 0 58.5 64 A 5.5 5.5 0 0 0 64 69.5 A 5.5 5.5 0 0 0 69.5 64 A 5.5 5.5 0 0 0 64 58.5 z" fill="#F78A09" />
</svg>