<svg xmlns="http://www.w3.org/2000/svg" viewBox="0 0 50 50">
  <path d="M26 18v27c0 .553.447 1 1 1h18c.553 0 1-.447 1-1V18H26zM36 35c-2.209 0-4-1.791-4-4 0-2.209 1.791-4 4-4s4 1.791 4 4C40 33.209 38.209 35 36 35zM46 16L41.66 4.585C41.497 4.229 41.142 4 40.75 4H40h-8-.75c-.392 0-.747.229-.91.585L26 16H46zM32 6h8v3c0 1.105-.895 2-2 2h-4c-1.105 0-2-.895-2-2V6zM4 18v27c0 .553.447 1 1 1h18c.553 0 1-.447 1-1V18H4zM10 35l4-8 4 8H10zM24 16L19.66 4.585C19.497 4.229 19.142 4 18.75 4H18h-8H9.25C8.858 4 8.503 4.229 8.34 4.585L4 16H24zM10 6h8v3c0 1.105-.895 2-2 2h-4c-1.105 0-2-.895-2-2V6z" fill="#F78A09" />
</svg>