<svg xmlns="http://www.w3.org/2000/svg" viewBox="0 0 30 30">
  <path d="M13 3 A 1.0001 1.0001 0 0 0 11.986328 4L6 4 A 1.0001 1.0001 0 1 0 6 6L24 6 A 1.0001 1.0001 0 1 0 24 4L18.013672 4 A 1.0001 1.0001 0 0 0 17 3L13 3 z M 6 8L6 24C6 25.105 6.895 26 8 26L22 26C23.105 26 24 25.105 24 24L24 8L6 8 z M 16.972656 11.773438L19.472656 11.773438L19.472656 15.107422C19.472656 18.441422 17.804672 21.775391 13.638672 21.775391C13.419672 21.775391 13.180406 21.737547 12.941406 21.685547C12.007406 22.332547 11.102469 22.765656 10.230469 22.972656C10.153469 22.990656 10.075047 23 9.9980469 23C9.5450469 23 9.1363437 22.689469 9.0273438 22.230469C8.9003437 21.692469 9.2325312 21.154344 9.7695312 21.027344C10.515531 20.850344 11.570687 20.354297 12.929688 19.154297C13.625687 18.400297 14.40425 17.530859 15.03125 16.755859C15.38025 16.326859 15.313766 15.697609 14.884766 15.349609C14.455766 15.001609 13.826516 15.067094 13.478516 15.496094C12.166516 17.114094 10.681687 18.273031 9.6796875 18.957031C9.5586875 18.549031 9.4726562 18.111422 9.4726562 17.607422C9.4726562 15.107422 11.972656 11.773438 16.972656 11.773438 z" fill="#F78A09" />
</svg>