<svg xmlns="http://www.w3.org/2000/svg" viewBox="0 0 30 30">
  <path d="M13 4 A 1.0001 1.0001 0 0 0 11.986328 5L6 5 A 1.0001 1.0001 0 1 0 6 7L24 7 A 1.0001 1.0001 0 0 0 25 5.8417969L25 5.1679688 A 1.0001 1.0001 0 0 0 24 4L13 4 z M 6 9L6.8886719 24.117188C6.9506719 25.175187 7.8277187 26 8.8867188 26L19.554688 26C19.210687 25.41 19 24.732 19 24C19 21.791 20.791 20 23 20C23.12 20 23.233563 20.025156 23.351562 20.035156L24 9L6 9 z M 23 22 A 2 2 0 0 0 21 24 A 2 2 0 0 0 23 26 A 2 2 0 0 0 25 24 A 2 2 0 0 0 23 22 z" fill="#F78A09" />
</svg>