<svg xmlns="http://www.w3.org/2000/svg" viewBox="0 0 50 50">
  <path d="M0.875 2C0.371094 2.0625 -0.00390625 2.492188 0 3L0 41C-0.00390625 41.386719 0.214844 41.738281 0.5625 41.90625L12.5625 47.90625C12.839844 48.039063 13.160156 48.039063 13.4375 47.90625L25.03125 42.09375L37.59375 47.90625C37.875 48.03125 38.199219 48.019531 38.46875 47.875L49.46875 41.875C49.792969 41.703125 49.996094 41.367188 50 41L50 3C49.996094 2.652344 49.8125 2.328125 49.511719 2.148438C49.210938 1.96875 48.839844 1.960938 48.53125 2.125L37.96875 7.875L25.40625 2.09375C25.140625 1.96875 24.828125 1.96875 24.5625 2.09375L13 7.875L1.4375 2.09375C1.261719 2.007813 1.066406 1.976563 0.875 2 Z M 25.03125 4.09375L37.59375 9.90625C37.875 10.03125 38.199219 10.019531 38.46875 9.875L48 4.6875L48 40.40625L37.96875 45.875L25.40625 40.09375C25.140625 39.96875 24.828125 39.96875 24.5625 40.09375L13 45.875L2 40.375L2 4.625L12.5625 9.90625C12.839844 10.039063 13.160156 10.039063 13.4375 9.90625 Z M 29.90625 10.96875L29.8125 11L29.0625 11.46875L28.96875 12.34375L29.625 12.9375L29.9375 12.96875L30.0625 12.96875L30.875 13L31.6875 12.625L31.875 11.75L31.28125 11.0625L30.9375 11L30 10.96875 Z M 6.0625 11L5.25 11.34375L5.03125 12.21875L5.15625 12.53125L5.1875 12.59375L5.96875 13.03125L6.78125 12.6875L7 11.8125L6.875 11.5L6.84375 11.46875 Z M 35.0625 11.34375L34.21875 11.59375L33.90625 12.4375L34.375 13.1875L34.6875 13.3125L35.6875 13.5L36.53125 13.25L36.875 12.4375L36.375 11.65625L36.0625 11.53125 Z M 26 12.5625L25.6875 12.71875L24.875 13.28125L24.46875 14.09375L24.84375 14.90625L25.71875 15.0625L26.03125 14.90625L26.84375 14.34375L27.28125 13.53125L26.875 12.71875 Z M 40.0625 12.96875L39.15625 13L38.625 13.71875L38.90625 14.5625L39.125 14.75L39.1875 14.78125L39.9375 15.25L40.8125 15.34375L41.4375 14.6875L41.25 13.8125L41 13.5625L40.1875 13.0625L40.15625 13.03125L40.09375 13 Z M 22 14C20.34375 14 19 15.34375 19 17C19 18.65625 20.34375 20 22 20C23.65625 20 25 18.65625 25 17C25 15.34375 23.65625 14 22 14 Z M 8.3125 14.28125L7.53125 14.75L7.40625 15.625L7.59375 15.9375L8.0625 16.5L8.09375 16.53125L8.125 16.53125L8.3125 16.75L9.15625 17.03125L9.875 16.53125L9.9375 15.625L9.71875 15.34375L9.59375 15.1875L9.125 14.65625 Z M 43.3125 16.25L42.5 16.5625L42.25 17.4375L42.375 17.78125L42.59375 18.09375L42.625 18.15625L42.84375 18.5625L43.5625 19.09375L44.40625 18.84375L44.71875 18L44.625 17.65625L44.34375 17.15625L44.34375 17.125L44.3125 17.09375L44.09375 16.71875 Z M 11.71875 17.59375L11.15625 18.3125L11.375 19.15625L11.625 19.40625L11.90625 19.53125L11.96875 19.5625L12 19.59375L12.65625 19.84375L13.5625 19.78125L14.03125 19.03125L13.71875 18.1875L13.40625 18L12.875 17.78125L12.78125 17.75L12.625 17.65625 Z M 17.96875 17.96875L17.625 18L17.125 18.15625L17.03125 18.1875L16.75 18.25L16.0625 18.8125L16.09375 19.6875L16.8125 20.21875L17.15625 20.1875L17.53125 20.125L17.5625 20.125L17.625 20.09375L18.21875 19.90625L18.875 19.28125L18.75 18.40625 Z M 44.4375 21.03125L43.875 21.71875L43.84375 22.0625L43.90625 22.4375L43.90625 22.5L43.9375 23L44.40625 23.78125L45.3125 23.875L45.90625 23.21875L45.9375 22.84375L45.90625 22.28125L45.875 22.25L45.875 22.21875L45.8125 21.8125L45.3125 21.0625 Z M 44.65625 25.9375L43.9375 26.46875L43.84375 26.8125L43.75 27.5625L43.75 27.65625L43.71875 27.71875L43.96875 28.59375L44.78125 28.90625L45.5625 28.4375L45.6875 28.125L45.71875 27.96875L45.71875 27.875L45.84375 27.03125L45.53125 26.1875 Z M 43.65625 30.75L42.8125 31.0625L42.625 31.34375L42.625 31.375L42.5625 31.46875L42.21875 32.15625L42.1875 33.03125L42.875 33.59375L43.75 33.375L43.96875 33.09375L44.375 32.34375L44.40625 32.28125L44.40625 32.25L44.46875 32.125L44.40625 31.21875 Z M 40 33C38.34375 33 37 34.34375 37 36C37 37.65625 38.34375 39 40 39C41.65625 39 43 37.65625 43 36C43 34.34375 41.65625 33 40 33 Z M 20.46875 34.15625L19.65625 34.5625L19.46875 35.4375L20.09375 36.09375L20.4375 36.15625L20.9375 36.1875L20.9375 36.15625L21.3125 36.21875L22.15625 35.90625L22.4375 35.0625L21.90625 34.34375L21.5625 34.25L21.0625 34.1875L20.96875 34.1875 Z M 16.28125 34.625L16.21875 34.65625L16.15625 34.65625L15.21875 34.96875L14.59375 35.59375L14.71875 36.46875L15.5 36.90625L15.84375 36.875L16.78125 36.5625L16.78125 36.53125L17.375 36.03125L17.375 35.125L16.625 34.625 Z M 11 35C9.34375 35 8 36.34375 8 38C8 39.65625 9.34375 41 11 41C12.65625 41 14 39.65625 14 38C14 36.34375 12.65625 35 11 35 Z M 25.625 35.125L24.75 35.28125L24.34375 36.0625L24.75 36.875L25.0625 37.03125L25.8125 37.28125L26 37.3125L26.875 37.1875L27.3125 36.40625L26.90625 35.59375L26.59375 35.40625L26.40625 35.375L26.40625 35.34375 Z M 30.34375 36.53125L29.46875 36.75L29.125 37.59375L29.59375 38.34375L29.90625 38.5L30.90625 38.6875L31.75 38.46875L32.09375 37.65625L31.65625 36.875L31.3125 36.75 Z M 36.1875 36.8125L35.84375 36.84375L35.75 36.84375L34.9375 36.96875L34.21875 37.46875L34.1875 38.375L34.875 38.9375L35.21875 38.9375L36.15625 38.8125L36.25 38.8125L36.3125 38.78125L37 38.1875L36.9375 37.3125Z" fill="#F78A09" />
</svg>