<svg xmlns="http://www.w3.org/2000/svg" viewBox="0 0 50 50">
  <path d="M3 4C2.449219 4 2 4.449219 2 5L2 39C2 39.367188 2.199219 39.703125 2.523438 39.875L13.519531 45.875C13.820313 46.039063 14.179688 46.039063 14.480469 45.875L25.019531 40.128906L36.550781 45.894531C36.859375 46.046875 37.222656 46.03125 37.515625 45.859375L47.515625 39.859375C47.816406 39.675781 48 39.351563 48 39L48 5C48 4.640625 47.804688 4.308594 47.492188 4.128906C47.179688 3.953125 46.796875 3.957031 46.484375 4.140625L36.957031 9.859375L25.449219 4.105469C25.15625 3.960938 24.808594 3.964844 24.519531 4.125L14 9.859375L3.476563 4.125C3.332031 4.042969 3.167969 4 3 4 Z M 25.019531 6.128906L36.550781 11.894531C36.859375 12.046875 37.222656 12.03125 37.515625 11.859375L46 6.765625L46 38.433594L36.957031 43.859375L25.449219 38.105469C25.15625 37.960938 24.808594 37.964844 24.519531 38.125L14 43.859375L4 38.40625L4 6.683594L13.519531 11.875C13.820313 12.039063 14.179688 12.039063 14.480469 11.875 Z M 17 15L11 16L9 16L7 18L7 19L9 19L10 23L13 26L12 28L14 30L15 35L17 36L18 31L19 30L20 28L18 26L14 25L14 23L18 19L16 17L17 16 Z M 19 15L18 17L19 19L22 17L22 15 Z M 34 16L27 17L24 19L24 22L27 20L27 21L23 24L22 27L25 29L26 34L28 36L31 30L31 28L29 25L27 24L29 24L31 26L34 24L35 26L36 24L38 26L39 24L41 22L40 19L43 17 Z M 41 29L37 31L37 33L39 33L41 35L42 32Z" fill="#F78A09" />
</svg>