<svg xmlns="http://www.w3.org/2000/svg" viewBox="0 0 50 50">
  <path d="M21 3C11.625 3 4 10.625 4 20C4 29.375 11.625 37 21 37C30.375 37 38 29.375 38 20C38 10.625 30.375 3 21 3 Z M 14.3125 14.5L16 14.5L16 25L13.875 25L13.875 18.1875L11.21875 18.1875L11.21875 16.59375C11.585938 16.605469 11.96875 16.566406 12.3125 16.5C12.65625 16.433594 12.941406 16.320313 13.21875 16.15625C13.492188 15.992188 13.75 15.769531 13.9375 15.5C14.128906 15.230469 14.253906 14.898438 14.3125 14.5 Z M 27.28125 14.5L28.96875 14.5L28.96875 25L26.84375 25L26.84375 18.1875L24.1875 18.1875L24.1875 16.59375C24.554688 16.605469 24.9375 16.566406 25.28125 16.5C25.625 16.433594 25.910156 16.320313 26.1875 16.15625C26.460938 15.992188 26.71875 15.769531 26.90625 15.5C27.097656 15.230469 27.222656 14.898438 27.28125 14.5 Z M 19.84375 17.375L22.1875 17.375L22.1875 19.6875L19.84375 19.6875 Z M 19.84375 22.6875L22.1875 22.6875L22.1875 25L19.84375 25 Z M 35.3125 32.46875C34.433594 33.476563 33.445313 34.382813 32.375 35.1875L44.09375 46.90625L46.90625 44.09375Z" fill="#F78A09" />
</svg>