<svg xmlns="http://www.w3.org/2000/svg" viewBox="0 0 50 50">
  <path d="M21 2C19.354545 2 18 3.3545455 18 5L18 7L8 7C7.447 7 7 7.447 7 8C7 8.553 7.447 9 8 9L9 9L9 45C9 46.657 10.343 48 12 48L29.037109 48C29.042109 47.995 29.045781 47.993281 29.050781 47.988281C29.124781 46.883281 29.306609 45.771969 29.599609 44.667969C29.791198 43.869042 30.119083 43.235244 30.410156 42.779297C30.554934 42.893257 30.70057 43.00304 30.847656 43.095703C31.277203 43.366312 31.642514 43.433568 32.037109 43.566406C31.393271 45.333793 31 47.166867 31 49 A 1.0001 1.0001 0 1 0 33 49C33 47.571031 33.370027 46.087074 33.867188 44.621094C34.758018 45.581717 35.943808 46.390372 37.533203 46.771484C39.796232 47.314124 42.621498 46.947502 44.931641 44.720703C47.430278 42.312177 47.835471 39.327355 48.050781 36.644531C48.266091 33.961707 48.353542 31.552308 49.802734 29.595703 A 1.0001 1.0001 0 0 0 49.244141 28.029297C46.145087 27.250584 43.412351 27.001152 41 27.105469L41 9L42 9C42.553 9 43 8.553 43 8C43 7.447 42.553 7 42 7L32 7L32 5C32 3.3545455 30.645455 2 29 2L21 2 z M 21 4L29 4C29.554545 4 30 4.4454545 30 5L30 7L20 7L20 5C20 4.4454545 20.445455 4 21 4 z M 19 14C19.553 14 20 14.447 20 15L20 40C20 40.553 19.553 41 19 41C18.447 41 18 40.553 18 40L18 15C18 14.447 18.447 14 19 14 z M 25 14C25.552 14 26 14.448 26 15L26 40C26 40.553 25.553 41 25 41C24.447 41 24 40.553 24 40L24 15C24 14.448 24.448 14 25 14 z M 31 14C31.552 14 32 14.447 32 15L32 29.976562C31.216858 30.55904 30.551458 31.200046 30 31.876953L30 15C30 14.447 30.448 14 31 14 z M 41.730469 29.060547C43.431393 29.070904 45.35535 29.304376 47.451172 29.742188C46.357504 31.944761 46.230512 34.317895 46.056641 36.484375C45.847201 39.094051 45.538284 41.357823 43.544922 43.279297C41.725065 45.033498 39.732221 45.241532 38 44.826172C36.294489 44.417216 34.963544 43.207347 34.726562 42.669922C35.259273 41.540696 35.770037 40.394653 36.490234 39.361328C38.545912 36.411883 41.227072 34.003491 43.447266 32.894531 A 1.0001163 1.0001163 0 1 0 42.552734 31.105469C39.891928 32.434509 37.073682 35.025742 34.849609 38.216797C34.090277 39.306271 33.54371 40.537264 32.964844 41.744141C32.611417 41.680011 32.446596 41.739741 31.914062 41.404297C30.977953 40.814559 30 39.735444 30 37C30 34.299556 32.92384 29.779306 40.105469 29.125C40.620829 29.078046 41.163494 29.057095 41.730469 29.060547 z" fill="#F78A09" />
</svg>