<svg xmlns="http://www.w3.org/2000/svg" viewBox="0 0 50 50"><path d="M20 1C13.383 1 8 6.383 8 13L8 18L4 18C2.346 18 1 19.346 1 21L1 45C1 46.654 2.346 48 4 48L28.273438 48C30.251438 49.152 32.532375 50 34.984375 50C42.584375 50 48.585156 41.899609 48.785156 41.599609L49.185547 41L48.785156 40.400391C48.622156 40.155391 44.6 34.726469 39 32.730469L39 21C39 19.346 37.654 18 36 18L32 18L32 13C32 6.383 26.617 1 20 1 z M 20 3C25.514 3 30 7.486 30 13L30 18L10 18L10 13C10 7.486 14.486 3 20 3 z M 20 28C21.7 28 23 29.3 23 31C23 31.9 22.6 32.699219 22 33.199219L22 36C22 37.1 21.1 38 20 38C18.9 38 18 37.1 18 36L18 33.199219C17.4 32.699219 17 31.9 17 31C17 29.3 18.3 28 20 28 z M 34.984375 34C40.484375 34 45.285547 39.2 46.685547 41C45.285547 42.8 40.484375 48 34.984375 48C29.484375 48 24.785156 42.8 23.285156 41C24.685156 39.2 29.484375 34 34.984375 34 z M 34.984375 35C31.684375 35 28.984375 37.7 28.984375 41C28.984375 44.3 31.684375 47 34.984375 47C38.284375 47 40.984375 44.3 40.984375 41C40.984375 37.7 38.284375 35 34.984375 35 z M 34.984375 39C36.084375 39 36.984375 39.9 36.984375 41C36.984375 42.1 36.084375 43 34.984375 43C33.884375 43 32.984375 42.1 32.984375 41C32.984375 39.9 33.884375 39 34.984375 39 z"/></svg>