<svg xmlns="http://www.w3.org/2000/svg" viewBox="0 0 50 50"><path d="M19.0625 1C16.5 1.152344 14.691406 2.058594 13.6875 3.71875L7.09375 15.15625L11.5 17.6875L0.15625 19.09375L3.625 21.09375L0.59375 26.25C-0.0429688 27.351563 -0.410156 29.820313 0.78125 31.625C1.253906 32.339844 2.777344 35.066406 4.125 37.46875C5.289063 39.542969 6.378906 41.496094 6.875 42.3125C7.453125 43.097656 8.023438 43.871094 8.09375 43.96875C8.097656 43.96875 6.816406 41.816406 9.09375 37.875L15 27.65625L18.46875 29.65625L14.03125 19.15625L18.4375 21.6875L27.875 5.34375C29.785156 1.777344 31.3125 1.160156 31.65625 1.0625C31.828125 1.0625 31.96875 1.0625 32.125 1.0625C31.992188 1.058594 31.855469 1.027344 31.71875 1.03125C31.636719 1.03125 31.550781 1.027344 31.46875 1.03125C30.074219 1.058594 27.664063 1.050781 24.75 1.03125C23.019531 1.019531 21.121094 1.003906 19.0625 1 Z M 32.96875 1.15625C32.371094 1.445313 31.078125 2.394531 29.5 5.34375L25.875 11.625L28 15.34375L24.53125 17.375L35.84375 18.75L31.4375 21.28125L37.15625 31.1875L44.59375 31.1875C47.722656 31.1875 49.277344 30.179688 49.9375 29.53125C50.121094 28.304688 49.933594 27.167969 49.375 26.15625L42.78125 14.75L38.375 17.28125L42.84375 6.78125L39.375 8.78125L36.40625 3.59375C35.902344 2.71875 34.578125 1.535156 32.96875 1.15625 Z M 32.15625 28.71875L25.28125 37.84375L25.28125 32.75L13.84375 32.75L10.125 39.1875C8.5625 41.898438 8.675781 43.757813 8.90625 44.65625C9.878906 45.429688 10.9375 45.851563 12.09375 45.875L25.28125 45.875L25.28125 40.75L32.15625 49.875L32.15625 45.875L38.125 45.90625C39.398438 45.90625 41.71875 45.03125 42.6875 43.09375C43.070313 42.328125 44.6875 39.617188 46.09375 37.25C47.308594 35.203125 48.445313 33.277344 48.90625 32.4375C49.300781 31.542969 49.667969 30.671875 49.71875 30.5625C49.71875 30.5625 48.519531 32.75 43.96875 32.75L32.15625 32.75Z"/></svg>