<svg xmlns="http://www.w3.org/2000/svg" viewBox="0 0 50 50">
  <path d="M47.492188 4.132813C47.179688 3.953125 46.796875 3.957031 46.484375 4.144531L36.957031 9.859375L25.445313 4.105469C25.15625 3.960938 24.808594 3.964844 24.519531 4.121094L14 9.859375L3.480469 4.121094C3.167969 3.953125 2.792969 3.960938 2.488281 4.140625C2.1875 4.320313 2 4.648438 2 5L2 39C2 39.367188 2.199219 39.703125 2.519531 39.878906L13.519531 45.878906C13.816406 46.039063 14.179688 46.039063 14.476563 45.878906L25.019531 40.128906L36.550781 45.894531C36.695313 45.964844 36.847656 46 37 46C37.179688 46 37.355469 45.953125 37.515625 45.859375L47.515625 39.859375C47.816406 39.675781 48 39.351563 48 39L48 5C48 4.640625 47.808594 4.308594 47.492188 4.132813 Z M 19 15L22 15L22 17L19 19L18 17 Z M 19 30L18 31L17 36L15 35L14 30L12 28L13 26L10 23L9 19L7 19L7 18L9 16L11 16L17 15L17 16L16 17L18 19L14 23L14 25L18 26L20 28 Z M 41 35L39 33L37 33L37 31L41 29L42 32 Z M 40 19L41 22L39 24L38 26L36 24L35 26L34 24L31 26L29 24L27 24L29 25L31 28L31 30L28 36L26 34L25 29L22 27L23 24L27 21L27 20L24 22L24 19L27 17L34 16L43 17Z" fill="#F78A09" />
</svg>